<?xml version="1.0" encoding="UTF-8"?>
<svg width="424px" height="118px" viewBox="0 0 424 118" version="1.1" xmlns="http://www.w3.org/2000/svg" xmlns:xlink="http://www.w3.org/1999/xlink">
    <title>Group</title>
    <g id="Page-1" stroke="none" stroke-width="1" fill="none" fill-rule="evenodd">
        <g id="Group" transform="translate(0.4, 0.3)" fill="currentColor" fill-rule="nonzero">
            <path d="M117.4,35.4 L117.4,35.2 L82.2,0 L44.4,0 L44.4,22.2 L22.2,0 L22.2,0 L0,22.2 L0,95.2 L22.2,117.4 L44.4,95.2 L44.4,117.4 L82.2,117.4 L117.4,82.2 L117.4,82 L94.1,58.7 L117.4,35.4 Z M44.4,95.2 L44.4,22.2 L80.9,58.7 L44.4,95.2 Z" id="Shape"></path>
            <g transform="translate(136.1, 16.4)">
                <path d="M16.3,15.2 C16.3,9.6 15.6,7.9 12.9,7.9 L12.8,7.9 C10.2,7.9 9.3,9.6 9.3,12.3 L9.3,29.9 C9.3,32.5 10.2,34.3 12.8,34.3 L12.9,34.3 C15.9,34.3 16.3,32.3 16.3,27 L24.2,27 C24.2,37.6 21.6,42 12.9,42 L12.8,42 C4.9,42 1.2,37.9 1.2,30.8 L1.2,11.6 C1.2,4.5 4.9,0.4 12.8,0.4 L12.9,0.4 C21.9,0.4 24.2,4.7 24.2,15.4 L16.3,15.4 L16.3,15.2 Z" id="Path"></path>
                <polygon id="Path" points="42.8 17.6 42.8 1 50.9 1 50.9 41.3 42.8 41.3 42.8 25.3 36 25.3 36 41.3 27.9 41.3 27.9 1 36 1 36 17.6"></polygon>
                <path d="M79.5,41.2 L70.9,41.2 L66.7,28.3 L66,28.3 L63.9,28.3 L63.9,41.2 L55.8,41.2 L55.8,0.9 L66,0.9 C74.4,0.9 78.6,4.7 78.6,12.2 L78.6,17.1 C78.6,21.6 77,24.8 73.8,26.5 L79.5,41.2 Z M64,8.5 L64,20.9 L66.1,20.9 C69.2,20.9 70.5,19.3 70.5,16.5 L70.5,12.9 C70.5,10 69.2,8.5 66.1,8.5 L64,8.5 Z" id="Shape"></path>
                <polygon id="Path" points="82.9 41.2 82.9 0.9 91 0.9 91 41.2"></polygon>
                <path d="M109.3,13.2 C109.3,9.5 108.6,7.8 106.1,7.8 L106,7.8 C103.9,7.8 102.9,9.1 102.9,11.2 C102.9,13.9 104.6,15 107.5,16.8 L111.8,19.5 C115.8,22.1 117.3,25.3 117.3,30.7 C117.3,37.9 113.6,41.7 105.9,41.7 L105.8,41.7 C98.6,41.7 94.5,38.4 94.5,28.4 L102.3,28.4 C102.3,32 103.1,34 105.8,34 L105.9,34 C108.2,34 109.2,32.8 109.2,30.3 C109.2,27.6 108,26.2 105.8,24.8 L101,21.9 C97.2,19.6 94.7,16.8 94.7,10.6 C94.7,4.7 98.1,0 106,0 L106.1,0 C114.3,0 117.2,4.4 117.2,13 L109.3,13 L109.3,13.2 Z" id="Path"></path>
                <polygon id="Path" points="140.7 0.9 140.7 8.8 133.7 8.8 133.7 41.2 125.6 41.2 125.6 8.8 118.6 8.8 118.6 0.9"></polygon>
                <path d="M153.9,0.2 C161.9,0.2 165.7,4.3 165.7,11.4 L165.7,30.6 C165.7,37.7 162,41.8 153.9,41.8 L153.8,41.8 C145.7,41.7 142,37.6 142,30.6 L142,11.4 C142,4.3 145.8,0.2 153.9,0.2 L153.9,0.2 Z M153.9,34.2 C156.6,34.2 157.5,32.4 157.5,29.8 L157.5,12.3 C157.5,9.7 156.6,7.9 153.9,7.9 L153.8,7.9 C151.1,7.9 150.2,9.7 150.2,12.3 L150.2,29.9 C150.2,32.4 151.1,34.2 153.9,34.2 L153.9,34.2 Z" id="Shape"></path>
                <polygon id="Path" points="22.1 45.7 22.1 53.6 15.1 53.6 15.1 86 7 86 7 53.6 0 53.6 0 45.7"></polygon>
                <polygon id="Path" points="39.8 62.3 39.8 45.7 47.9 45.7 47.9 86 39.8 86 39.8 70 33 70 33 86 24.9 86 24.9 45.7 33 45.7 33 62.3"></polygon>
                <path d="M76.8,85.9 L68.6,85.9 L67.5,78.5 L60.2,78.5 L59.1,85.9 L50.9,85.9 L57.9,45.6 L69.9,45.6 L76.8,85.9 Z M63.8,50.8 L61,70.5 L66.6,70.5 L63.8,50.8 Z" id="Shape"></path>
                <polygon id="Path" points="95 45.7 102.6 45.7 102.6 86 96.4 86 87.3 64.2 87.3 86 79.7 86 79.7 45.7 85.9 45.7 95 67.5"></polygon>
                <path d="M118.7,45 C126.7,45 130.5,49.1 130.5,56.2 L130.5,75.4 C130.5,82.5 126.8,86.6 118.7,86.6 L118.6,86.6 C110.5,86.5 106.8,82.4 106.8,75.4 L106.8,56.2 C106.9,49.1 110.6,45 118.7,45 L118.7,45 Z M118.7,79 C121.4,79 122.3,77.2 122.3,74.6 L122.3,57 C122.3,54.4 121.4,52.6 118.7,52.6 L118.6,52.6 C115.9,52.6 115,54.4 115,57 L115,74.6 C115,77.2 115.9,79 118.7,79 L118.7,79 Z" id="Shape"></path>
                <path d="M144.9,45.7 C153.3,45.7 157.5,50.4 157.5,57.7 L157.5,63.3 C157.5,70.7 153.3,75.3 144.9,75.3 L142.8,75.3 L142.8,85.8 L134.7,85.8 L134.7,45.5 L144.9,45.5 L144.9,45.7 Z M149.3,57.7 C149.3,54.8 148,53.3 144.9,53.3 L142.8,53.3 L142.8,67.8 L144.9,67.8 C148,67.8 149.3,66.2 149.3,63.4 L149.3,57.7 Z" id="Shape"></path>
                <path d="M172,45 C180,45 183.8,49.1 183.8,56.2 L183.8,75.4 C183.8,82.5 180.1,86.6 172,86.6 L171.9,86.6 C163.8,86.5 160.1,82.4 160.1,75.4 L160.1,56.2 C160.1,49.1 163.9,45 172,45 L172,45 Z M172,79 C174.7,79 175.6,77.2 175.6,74.6 L175.6,57 C175.6,54.4 174.7,52.6 172,52.6 L171.9,52.6 C169.2,52.6 168.3,54.4 168.3,57 L168.3,74.6 C168.3,77.2 169.2,79 172,79 L172,79 Z" id="Shape"></path>
                <path d="M202.8,45.7 L210.9,45.7 L210.9,75.4 C210.9,82.5 207.2,86.6 199.3,86.6 L199.2,86.6 C191.2,86.6 187.6,82.5 187.6,75.4 L187.6,45.7 L195.7,45.7 L195.7,74.6 C195.7,77.2 196.6,79 199.2,79 L199.3,79 C201.9,79 202.8,77.2 202.8,74.6 L202.8,45.7 Z" id="Path"></path>
                <polygon id="Path" points="223.7 45.7 223.7 78.1 234.4 78.1 234.4 86 215.7 86 215.7 45.7 223.7 45.7"></polygon>
                <path d="M248,45 C256,45 259.8,49.1 259.8,56.2 L259.8,75.4 C259.8,82.5 256.1,86.6 248,86.6 L247.9,86.6 C239.8,86.5 236.1,82.4 236.1,75.4 L236.1,56.2 C236.2,49.1 239.9,45 248,45 L248,45 Z M248,79 C250.7,79 251.6,77.2 251.6,74.6 L251.6,57 C251.6,54.4 250.7,52.6 248,52.6 L247.9,52.6 C245.2,52.6 244.3,54.4 244.3,57 L244.3,74.6 C244.3,77.2 245.2,79 248,79 L248,79 Z" id="Shape"></path>
                <path d="M278.9,45.7 L287,45.7 L287,75.4 C287,82.5 283.3,86.6 275.4,86.6 L275.3,86.6 C267.3,86.6 263.7,82.5 263.7,75.4 L263.7,45.7 L271.8,45.7 L271.8,74.6 C271.8,77.2 272.7,79 275.3,79 L275.4,79 C278,79 278.9,77.2 278.9,74.6 L278.9,45.7 Z" id="Path"></path>
            </g>
        </g>
    </g>
</svg>