<?xml version="1.0" encoding="UTF-8"?>
<svg width="200px" height="201px" viewBox="0 0 200 201" version="1.1" xmlns="http://www.w3.org/2000/svg" xmlns:xlink="http://www.w3.org/1999/xlink">
    <title>Combined Shape</title>
    <g id="Page-1" stroke="none" stroke-width="1" fill="none" fill-rule="evenodd">
        <path d="M112.160054,174.090349 C117.521984,174.090349 119.39866,177.03941 119.39866,182.40134 L114.036729,182.40134 C114.036729,180.071674 113.536877,178.991637 112.054558,178.919922 L111.891957,178.916086 C110.551475,178.916086 109.747185,179.720375 109.747185,181.060858 C109.747185,182.937534 110.819571,183.473727 112.696247,184.814209 L115.377212,186.690885 C118.058177,188.299464 118.862466,190.444236 118.862466,193.929491 C118.862466,198.394118 116.547077,200.800622 111.916299,200.896987 L111.623861,200.9 C107.06622,200.9 104.385255,198.755228 104.385255,192.320912 L109.479088,192.320912 C109.479088,194.653351 109.980131,195.733184 111.708728,195.802582 L111.891957,195.806166 C113.23244,195.806166 114.036729,195.001877 114.036729,193.393298 C114.036729,191.784718 113.23244,190.712332 111.891957,189.908043 L108.942895,188.031367 C106.530027,186.690885 104.921448,184.814209 104.921448,180.792761 C104.921448,177.114477 106.981287,174.208633 111.857956,174.09387 L112.160054,174.090349 Z M127.709651,174.090349 C133.607775,174.090349 134.948257,176.771314 134.948257,183.741823 L129.854424,183.741823 C129.854424,180.087244 129.34608,178.974384 127.834426,178.918343 L127.709651,178.916086 C126.101072,178.916086 125.564879,179.988472 125.564879,181.865147 L125.564879,193.125201 C125.564879,194.674203 126.06209,195.9746 127.535306,196.068801 L127.709651,196.074263 C129.586327,196.074263 129.854424,194.73378 129.854424,191.248525 L134.948257,191.248525 C134.948257,197.839231 133.392851,200.800655 127.987813,200.897539 L127.709651,200.9 C122.615818,200.9 120.202949,198.219035 120.202949,193.661394 L120.202949,181.328954 C120.202949,176.860679 122.522123,174.196206 127.413104,174.093435 L127.709651,174.090349 Z M160.685523,174.090349 C165.779357,174.090349 168.192225,176.771314 168.192225,181.328954 L168.192225,193.661394 C168.192225,198.129669 165.873051,200.794143 160.98207,200.896914 L160.685523,200.9 C155.591689,200.9 153.17882,198.219035 153.17882,193.661394 L153.17882,181.328954 C153.17882,176.771314 155.591689,174.090349 160.685523,174.090349 Z M177.307507,174.090349 C182.40134,174.090349 184.814209,176.771314 184.814209,181.328954 L184.814209,193.661394 C184.814209,198.129669 182.495035,200.794143 177.604054,200.896914 L177.307507,200.9 C172.213673,200.9 169.800804,198.219035 169.800804,193.661394 L169.800804,181.328954 C169.800804,176.771314 172.213673,174.090349 177.307507,174.090349 Z M90.980429,174.090349 C96.6104558,174.090349 98.4871314,176.503217 98.4871314,183.473727 L93.1252011,183.473727 C93.1252011,180.351191 92.620085,179.249119 90.8744632,179.186993 L90.7123324,179.184182 C89.1037534,179.184182 88.5675603,180.256568 88.5675603,182.133244 L88.5675603,193.393298 C88.5675603,194.944427 89.0661378,196.246269 90.7844493,196.337279 L90.980429,196.342359 C92.589008,196.342359 93.1252011,195.269973 93.1252011,193.393298 L93.1252011,191.516622 L91.516622,191.516622 L91.516622,187.227078 L98.4871314,187.227078 L98.4871314,200.631903 L96.0742627,200.631903 L95.0018767,198.487131 C94.2297587,200.031367 92.7164075,200.83437 90.4618231,200.896139 L90.1761394,200.9 C85.8865952,200.9 83.4737265,198.219035 83.4737265,193.661394 L83.4737265,181.328954 C83.4737265,176.860679 85.7929005,174.196206 90.6838819,174.093435 L90.980429,174.090349 Z M9.47908847,174.358445 C14.8410188,174.358445 17.2538874,177.03941 17.2538874,181.597051 L17.2538874,193.125201 C17.2538874,197.682842 14.8410188,200.363807 9.47908847,200.363807 L2.24048257,200.363807 L2.24048257,174.358445 L9.47908847,174.358445 Z M25.8329759,174.358445 C31.1949062,174.358445 33.8758713,176.771314 33.8758713,181.597051 L33.8758713,184.814209 C33.8758713,187.763271 32.8034853,189.639946 30.6587131,190.980429 L34.4120643,200.363807 L28.7820375,200.363807 L26.1010724,192.052815 L24.2243968,192.052815 L24.2243968,200.363807 L19.130563,200.363807 L19.130563,174.358445 L25.8329759,174.358445 Z M40.8463807,174.358445 L40.8463807,200.363807 L35.7525469,200.363807 L35.7525469,174.358445 L40.8463807,174.358445 Z M64.1707775,174.358445 L64.1707775,200.363807 L59.0769437,200.363807 L59.0769437,174.358445 L64.1707775,174.358445 Z M70.6050938,174.358445 L76.5032172,188.56756 L76.5032172,174.358445 L81.3289544,174.358445 L81.3289544,200.363807 L77.3075067,200.363807 L71.4093834,186.154692 L71.4093834,200.363807 L66.5836461,200.363807 L66.5836461,174.358445 L70.6050938,174.358445 Z M141.918767,174.358445 L141.918767,185.082306 L146.208311,185.082306 L146.208311,174.358445 L151.302145,174.358445 L151.302145,200.363807 L146.208311,200.363807 L146.208311,189.908043 L141.918767,189.908043 L141.918767,200.363807 L136.824933,200.363807 L136.824933,174.358445 L141.918767,174.358445 Z M192.052815,174.358445 L192.052815,195.269973 L199.023324,195.269973 L199.023324,200.363807 L186.958981,200.363807 L186.958981,174.358445 L192.052815,174.358445 Z M47.5487936,174.358445 L49.961,196.34 L52.6426273,174.358445 L58.0045576,174.358445 L53.9831099,200.363807 L46.208311,200.363807 L42.1868633,174.358445 L47.5487936,174.358445 Z M160.685523,178.647989 C158.808847,178.647989 158.272654,179.720375 158.272654,181.597051 L158.272654,192.857105 C158.540751,194.73378 159.076944,195.806166 160.685523,195.806166 C162.562198,195.806166 163.098391,194.73378 163.098391,192.857105 L163.098391,181.597051 C163.098391,180.045921 162.599814,178.74408 160.881502,178.65307 L160.685523,178.647989 Z M177.307507,178.647989 C175.698928,178.647989 175.162735,179.720375 175.162735,181.597051 L175.162735,192.857105 C175.162735,194.73378 175.698928,195.806166 177.307507,195.806166 C178.916086,195.806166 179.452279,194.73378 179.452279,192.857105 L179.452279,181.597051 C179.452279,180.048049 178.955068,178.747652 177.481852,178.653451 L177.307507,178.647989 Z M9.47908847,179.184182 L7.60241287,179.184182 L7.60241287,195.53807 L9.47908847,195.53807 C11.3557641,195.53807 12.1600536,194.465684 12.1600536,192.589008 L12.1600536,182.133244 C12.1600536,180.524665 11.6238606,179.184182 9.47908847,179.184182 Z M25.8329759,179.184182 L24.4924933,179.184182 L24.4924933,187.495174 L25.8329759,187.495174 C27.7096515,187.495174 28.7820375,186.422788 28.7820375,184.546113 L28.7820375,182.133244 C28.7820375,180.256568 27.977748,179.184182 25.8329759,179.184182 Z M49.1573727,108.138606 C58.8088472,108.138606 63.3664879,112.964343 63.3664879,121.543432 L63.3664879,144.599732 C63.3664879,153.062887 58.9311944,157.873447 49.5458593,158.001917 L49.1573727,158.004558 C39.5058981,158.004558 34.9482574,152.910724 34.9482574,144.599732 L34.9482574,121.543432 C34.9482574,112.964343 39.5058981,108.138606 49.1573727,108.138606 Z M179.720375,108.942895 L179.720375,143.527346 C179.720375,146.402681 180.739812,148.768298 183.772637,148.884781 L184.00992,148.889276 C186.958981,148.889276 188.299464,146.744504 188.299464,143.527346 L188.299464,108.942895 L197.950938,108.942895 L197.950938,144.599732 C197.950938,153.064433 193.775019,157.875204 184.393121,158.001986 L184.00992,158.004558 C174.358445,158.004558 170.068901,153.17882 170.068901,144.599732 L170.068901,108.942895 L179.720375,108.942895 Z M80.2565684,108.942895 L80.2565684,143.527346 C80.2565684,146.402681 81.2760054,148.768298 84.3088304,148.884781 L84.5461126,148.889276 C87.4951743,148.889276 88.8356568,146.744504 88.8356568,143.527346 L88.8356568,108.942895 L98.4871314,108.942895 L98.4871314,144.599732 C98.4871314,153.064433 94.3112124,157.875204 84.9293144,158.001986 L84.5461126,158.004558 C74.8946381,158.004558 70.6050938,153.17882 70.6050938,144.599732 L70.6050938,108.942895 L80.2565684,108.942895 Z M148.62118,108.138606 C158.272654,108.138606 162.830295,112.964343 162.830295,121.543432 L162.830295,144.599732 C162.830295,153.062887 158.395001,157.873447 149.009666,158.001917 L148.62118,158.004558 C138.969705,158.004558 134.412064,152.910724 134.412064,144.599732 L134.412064,121.543432 C134.412064,112.964343 138.969705,108.138606 148.62118,108.138606 Z M116.717694,108.942895 L116.717694,147.81689 L129.586327,147.81689 L129.586327,157.200268 L107.06622,157.200268 L107.06622,108.942895 L116.717694,108.942895 Z M14.0367292,108.942895 C23.9563003,108.942895 29.050134,114.572922 29.050134,123.420107 L29.050134,130.12252 C29.050134,138.969705 23.9563003,144.599732 14.0367292,144.599732 L11.6238606,144.599732 L11.6238606,157.200268 L1.97238606,157.200268 L1.97238606,108.942895 L14.0367292,108.942895 Z M148.62118,116.717694 C145.404021,116.717694 144.331635,118.862466 144.331635,122.079625 L144.331635,143.259249 C144.331635,146.476408 145.135925,148.62118 148.62118,148.62118 C151.838338,148.62118 152.910724,146.476408 152.910724,143.259249 L152.910724,122.079625 C152.910724,119.20429 151.891287,116.838673 148.858462,116.722189 L148.62118,116.717694 Z M49.1573727,116.717694 C45.9402145,116.717694 44.8678284,118.862466 44.8678284,122.079625 L44.8678284,143.259249 C44.8678284,146.476408 45.672118,148.62118 49.1573727,148.62118 C52.3745308,148.62118 53.4469169,146.476408 53.4469169,143.259249 L53.4469169,122.079625 C53.4469169,119.20429 52.4274799,116.838673 49.3946548,116.722189 L49.1573727,116.717694 Z M13.7686327,117.79008 L11.3557641,117.79008 L11.3557641,135.216354 L13.7686327,135.216354 C17.5219839,135.216354 19.130563,133.339678 19.130563,129.854424 L19.130563,123.152011 C19.130563,119.666756 17.5219839,117.79008 13.7686327,117.79008 Z M184.278016,54.5193029 C193.929491,54.5193029 198.487131,59.3450402 198.487131,67.9241287 L198.487131,90.980429 C198.487131,99.4435838 194.051838,104.254144 184.666503,104.382614 L184.278016,104.385255 C174.626542,104.385255 170.068901,99.2914209 170.068901,90.980429 L170.068901,67.9241287 C170.068901,59.3450402 174.626542,54.5193029 184.278016,54.5193029 Z M27.1734584,55.3235925 L27.1734584,64.7069705 L18.8624665,64.7069705 L18.8624665,103.580965 L9.21099196,103.580965 L9.21099196,64.7069705 L0.9,64.7069705 L0.9,55.3235925 L27.1734584,55.3235925 Z M50.7659517,55.3235925 L50.7659517,75.1627346 L58.8088472,75.1627346 L58.8088472,55.3235925 L68.4603217,55.3235925 L68.4603217,103.580965 L58.8088472,103.580965 L58.8088472,84.2780161 L50.7659517,84.2780161 L50.7659517,103.580965 L41.1144772,103.580965 L41.1144772,55.3235925 L50.7659517,55.3235925 Z M105.189544,55.3235925 L113.500536,103.580965 L103.580965,103.580965 L102.240483,94.7337802 L93.6613941,94.7337802 L92.3209115,103.580965 L82.4013405,103.580965 L90.7123324,55.3235925 L105.189544,55.3235925 Z M134.680161,55.3235925 L145.672118,81.5970509 L145.672118,55.3235925 L154.787399,55.3235925 L154.787399,103.580965 L147.280697,103.580965 L136.28874,77.3075067 L136.28874,103.580965 L127.173458,103.580965 L127.173458,55.3235925 L134.680161,55.3235925 Z M184.278016,63.0983914 C181.060858,63.0983914 179.988472,65.2431635 179.988472,68.4603217 L179.988472,89.6399464 C179.988472,92.8571046 181.060858,95.0018767 184.278016,95.0018767 C187.495174,95.0018767 188.56756,92.8571046 188.56756,89.6399464 L188.56756,68.4603217 C188.56756,65.5849866 187.548123,63.21937 184.515298,63.1028862 L184.278016,63.0983914 Z M97.9509383,61.4898123 L94.7337802,85.0823056 L101.436193,85.0823056 L97.9509383,61.4898123 Z M16.1815013,1.43619303 C26.9053619,1.43619303 29.8544236,6.53002681 29.8544236,19.3986595 L20.4710456,19.3986595 L20.4710456,18.59437 C20.4710456,12.011643 19.6952242,10.0838444 16.6196465,10.0170936 L16.4495979,10.0152815 C13.2324397,10.0152815 12.1600536,12.1600536 12.1600536,15.3772118 L12.1600536,36.5568365 C12.1600536,39.6935657 13.1794906,41.8108579 16.2123157,41.9147621 L16.4495979,41.9187668 C19.9348525,41.9187668 20.4710456,39.5058981 20.4710456,33.3396783 L29.8544236,33.3396783 C29.8544236,45.8047248 26.9684416,51.1859975 16.5247416,51.3002826 L16.1815013,51.3021448 C6.79812332,51.3021448 2.24048257,46.4764075 2.24048257,37.897319 L2.24048257,14.8410188 C2.24048257,6.37945205 6.67411171,1.56910933 15.7985991,1.43890696 L16.1815013,1.43619303 Z M185.082306,0.9 C194.73378,0.9 199.291421,5.72573727 199.291421,14.3048257 L199.291421,37.361126 C199.291421,45.8242808 194.856127,50.634841 185.470792,50.7633106 L185.082306,50.7659517 C175.430831,50.7659517 170.87319,45.672118 170.87319,37.361126 L170.87319,14.3048257 C170.87319,5.72573727 175.430831,0.9 185.082306,0.9 Z M127.977748,0.9 C137.897319,0.9 141.114477,6.26193029 141.114477,16.4495979 L131.731099,16.4495979 C131.731099,12.2598105 130.963783,10.1161983 128.180033,10.0187614 L127.977748,10.0152815 C125.564879,10.0152815 124.224397,11.6238606 124.224397,14.0367292 C124.224397,17.2538874 126.369169,18.59437 129.854424,20.7391421 L134.948257,23.9563003 C139.773995,26.9053619 141.382574,30.9268097 141.382574,37.361126 C141.382574,45.8193822 136.952413,50.3686732 128.092092,50.4951444 L127.709651,50.4978552 C119.130563,50.4978552 114.036729,46.4764075 114.036729,34.6801609 L123.420107,34.6801609 C123.420107,38.8722155 124.444302,41.2719285 127.493611,41.3788411 L127.709651,41.3825737 C130.390617,41.3825737 131.731099,40.0420912 131.731099,36.824933 C131.731099,33.6077748 130.390617,31.9991957 127.709651,30.3906166 L122.079625,26.9053619 C117.521984,24.2243968 114.572922,20.7391421 114.572922,13.5005362 C114.572922,6.36108928 118.484948,1.04725436 127.595145,0.903009579 L127.977748,0.9 Z M44.0635389,1.70428954 L44.0635389,21.5434316 L52.1064343,21.5434316 L52.1064343,1.70428954 L61.7579088,1.70428954 L61.7579088,49.9616622 L52.1064343,49.9616622 L52.1064343,30.6587131 L44.0635389,30.6587131 L44.0635389,49.9616622 L34.4120643,49.9616622 L34.4120643,1.70428954 L44.0635389,1.70428954 Z M79.9884718,1.70428954 C89.9080429,1.70428954 95.0018767,6.26193029 95.0018767,15.3772118 L95.0018767,21.2753351 C95.0018767,26.6372654 93.1252011,30.3906166 89.1037534,32.5353887 L96.0742627,49.9616622 L85.8865952,49.9616622 L80.7927614,34.4120643 L77.5756032,34.4120643 L77.5756032,49.9616622 L67.9241287,49.9616622 L67.9241287,1.70428954 L79.9884718,1.70428954 Z M109.747185,1.70428954 L109.747185,49.9616622 L100.09571,49.9616622 L100.09571,1.70428954 L109.747185,1.70428954 Z M169.264611,1.70428954 L169.264611,11.0876676 L160.953619,11.0876676 L160.953619,49.9616622 L151.302145,49.9616622 L151.302145,11.0876676 L142.991153,11.0876676 L142.991153,1.70428954 L169.264611,1.70428954 Z M185.082306,9.47908847 C181.865147,9.47908847 180.792761,11.6238606 180.792761,14.8410188 L180.792761,36.0206434 C180.792761,39.2378016 181.865147,41.3825737 185.082306,41.3825737 C188.299464,41.3825737 189.37185,39.2378016 189.37185,36.0206434 L189.37185,14.8410188 C189.37185,11.9656836 188.352413,9.60006702 185.319588,9.48358328 L185.082306,9.47908847 Z M79.9884718,10.5514745 L77.5756032,10.5514745 L77.5756032,25.5648794 L79.9884718,25.5648794 C83.7418231,25.5648794 85.3504021,23.6882038 85.3504021,20.2029491 L85.3504021,15.9134048 C85.3504021,12.4281501 83.7418231,10.5514745 79.9884718,10.5514745 Z" id="Combined-Shape" fill="#F7F7F8" fill-rule="nonzero"></path>
    </g>
</svg>